<svg xmlns:xlink="http://www.w3.org/1999/xlink" xmlns="http://www.w3.org/2000/svg" width="40" height="40" viewBox="0 0 40 40" fill="none">
<g clip-path="url(#clip0_21_21)">
<circle cx="20" cy="20" r="20" fill="#210124"/>
<path d="M19.7748 31.288C14.9108 31.288 11.4228 28.44 11.4228 24.44H16.7988C16.9268 26.04 18.0468 26.968 19.8388 26.968C21.7588 26.968 22.8468 26.072 22.8468 24.504C22.8468 22.968 21.5348 22.104 19.1988 22.104H16.7668V17.784H18.8788C20.8308 17.784 21.8868 17.016 21.8868 15.576C21.8868 14.168 21.0228 13.368 19.4868 13.368C18.0148 13.368 17.1188 14.328 17.1188 15.896H11.7747C11.7747 11.992 15.2628 9.048 19.7748 9.048C24.6388 9.048 27.5508 11.576 27.5508 15.128C27.5508 16.984 26.4948 18.456 24.5428 19.608C27.1028 20.504 28.5108 22.136 28.5108 24.376C28.5108 28.504 24.9908 31.288 19.7748 31.288Z" fill="#F7F9F7"/>
</g>
<defs>
<clipPath id="clip0_21_21">
<rect width="40" height="40" fill="white"/>
</clipPath>
</defs>
</svg>